REM DIRINDEX 1\2,1\3
REM DIRNAME cjc143,folder01,folder02
TITLE ""
FILE "sample sentencesTrack01.mp3" MP3
  TRACK 01 AUDIO
    TITLE "3:cjc143_2264"
    INDEX 01 00:00:00
  TRACK 02 AUDIO
    TITLE "0:"
    INDEX 01 00:00:52
  TRACK 03 AUDIO
    TITLE "3:cjc143_2265"
    INDEX 01 00:01:22
  TRACK 04 AUDIO
    TITLE "0:"
    INDEX 01 00:05:30
  TRACK 05 AUDIO
    TITLE "3:cjc143_2266"
    INDEX 01 00:06:39
  TRACK 06 AUDIO
    TITLE "0:"
    INDEX 01 00:08:56
  TRACK 07 AUDIO
    TITLE "3:cjc143_2267"
    INDEX 01 00:09:69
  TRACK 08 AUDIO
    TITLE "0:"
    INDEX 01 00:13:37
  TRACK 09 AUDIO
    TITLE "3:cjc143_2268"
    INDEX 01 00:14:43
  TRACK 10 AUDIO
    TITLE "0:"
    INDEX 01 00:18:07
  TRACK 11 AUDIO
    TITLE "3:cjc143_2269"
    INDEX 01 00:19:16
  TRACK 12 AUDIO
    TITLE "0:"
    INDEX 01 00:21:11
  TRACK 13 AUDIO
    TITLE "3:cjc143_2270"
    INDEX 01 00:22:17
  TRACK 14 AUDIO
    TITLE "0:"
    INDEX 01 00:24:55
  TRACK 15 AUDIO
    TITLE "3:cjc143_2271"
    INDEX 01 00:25:64
  TRACK 16 AUDIO
    TITLE "0:"
    INDEX 01 00:28:33
  TRACK 17 AUDIO
    TITLE "3:cjc143_2272"
    INDEX 01 00:29:40
  TRACK 18 AUDIO
    TITLE "0:"
    INDEX 01 00:33:03
  TRACK 19 AUDIO
    TITLE "3:cjc143_2273"
    INDEX 01 00:34:16
  TRACK 20 AUDIO
    TITLE "0:"
    INDEX 01 00:38:47
  TRACK 21 AUDIO
    TITLE "3:cjc143_2274"
    INDEX 01 00:39:52
  TRACK 22 AUDIO
    TITLE "0:"
    INDEX 01 00:41:71
  TRACK 23 AUDIO
    TITLE "3:cjc143_2275"
    INDEX 01 00:43:03
  TRACK 24 AUDIO
    TITLE "0:"
    INDEX 01 00:45:59
  TRACK 25 AUDIO
    TITLE "3:cjc143_2276"
    INDEX 01 00:46:68
  TRACK 26 AUDIO
    TITLE "0:"
    INDEX 01 00:49:27
  TRACK 27 AUDIO
    TITLE "3:cjc143_2277"
    INDEX 01 00:50:33
  TRACK 28 AUDIO
    TITLE "0:"
    INDEX 01 00:53:29
  TRACK 29 AUDIO
    TITLE "3:cjc143_2278"
    INDEX 01 00:54:38
  TRACK 30 AUDIO
    TITLE "0:"
    INDEX 01 00:56:10
  TRACK 31 AUDIO
    TITLE "3:cjc143_2279"
    INDEX 01 00:57:19
  TRACK 32 AUDIO
    TITLE "0:"
    INDEX 01 00:59:69
  TRACK 33 AUDIO
    TITLE "3:cjc143_2280"
    INDEX 01 01:01:03
  TRACK 34 AUDIO
    TITLE "0:"
    INDEX 01 01:03:65
  TRACK 35 AUDIO
    TITLE "3:cjc143_2281"
    INDEX 01 01:04:74
  TRACK 36 AUDIO
    TITLE "0:"
    INDEX 01 01:07:37
  TRACK 37 AUDIO
    TITLE "3:cjc143_2282"
    INDEX 01 01:08:58
  TRACK 38 AUDIO
    TITLE "0:"
    INDEX 01 01:12:38
  TRACK 39 AUDIO
    TITLE "3:cjc143_2283"
    INDEX 01 01:13:67
  TRACK 40 AUDIO
    TITLE "0:"
    INDEX 01 01:18:72
  TRACK 41 AUDIO
    TITLE "3:cjc143_2284"
    INDEX 01 01:20:14
  TRACK 42 AUDIO
    TITLE "0:"
    INDEX 01 01:23:56
  TRACK 43 AUDIO
    TITLE "3:cjc143_2285"
    INDEX 01 01:24:63
  TRACK 44 AUDIO
    TITLE "0:"
    INDEX 01 01:26:64
  TRACK 45 AUDIO
    TITLE "3:cjc143_2286"
    INDEX 01 01:27:71
  TRACK 46 AUDIO
    TITLE "0:"
    INDEX 01 01:29:50
  TRACK 47 AUDIO
    TITLE "3:cjc143_2287"
    INDEX 01 01:30:58
  TRACK 48 AUDIO
    TITLE "0:"
    INDEX 01 01:32:33
  TRACK 49 AUDIO
    TITLE "3:cjc143_2288"
    INDEX 01 01:33:44
  TRACK 50 AUDIO
    TITLE "0:"
    INDEX 01 01:36:13
  TRACK 51 AUDIO
    TITLE "3:cjc143_2289"
    INDEX 01 01:37:21
  TRACK 52 AUDIO
    TITLE "0:"
    INDEX 01 01:39:39
  TRACK 53 AUDIO
    TITLE "3:cjc143_2290"
    INDEX 01 01:40:46
  TRACK 54 AUDIO
    TITLE "0:"
    INDEX 01 01:43:45
  TRACK 55 AUDIO
    TITLE "3:cjc143_2291"
    INDEX 01 01:44:50
  TRACK 56 AUDIO
    TITLE "0:"
    INDEX 01 01:46:74
  TRACK 57 AUDIO
    TITLE "3:cjc143_2292"
    INDEX 01 01:48:07
  TRACK 58 AUDIO
    TITLE "0:"
    INDEX 01 01:50:53
  TRACK 59 AUDIO
    TITLE "3:cjc143_2293"
    INDEX 01 01:51:58
  TRACK 60 AUDIO
    TITLE "0:"
    INDEX 01 01:54:46
  TRACK 61 AUDIO
    TITLE "3:cjc143_2294"
    INDEX 01 01:55:54
  TRACK 62 AUDIO
    TITLE "0:"
    INDEX 01 01:57:74
  TRACK 63 AUDIO
    TITLE "3:cjc143_2295"
    INDEX 01 01:59:14
  TRACK 64 AUDIO
    TITLE "0:"
    INDEX 01 02:01:39
  TRACK 65 AUDIO
    TITLE "3:cjc143_2296"
    INDEX 01 02:02:46
  TRACK 66 AUDIO
    TITLE "0:"
    INDEX 01 02:05:27
  TRACK 67 AUDIO
    TITLE "3:cjc143_2297"
    INDEX 01 02:06:38
  TRACK 68 AUDIO
    TITLE "0:"
    INDEX 01 02:09:52
  TRACK 69 AUDIO
    TITLE "3:cjc143_2298"
    INDEX 01 02:10:61
  TRACK 70 AUDIO
    TITLE "0:"
    INDEX 01 02:13:28
  TRACK 71 AUDIO
    TITLE "3:cjc143_2299"
    INDEX 01 02:14:37
  TRACK 72 AUDIO
    TITLE "0:"
    INDEX 01 02:17:32
  TRACK 73 AUDIO
    TITLE "3:cjc143_2300"
    INDEX 01 02:18:41
  TRACK 74 AUDIO
    TITLE "0:"
    INDEX 01 02:23:32
  TRACK 75 AUDIO
    TITLE "3:cjc143_2301"
    INDEX 01 02:24:40
  TRACK 76 AUDIO
    TITLE "0:"
    INDEX 01 02:26:56
  TRACK 77 AUDIO
    TITLE "3:cjc143_2302"
    INDEX 01 02:27:67
  TRACK 78 AUDIO
    TITLE "0:"
    INDEX 01 02:30:66
  TRACK 79 AUDIO
    TITLE "3:cjc143_2303"
    INDEX 01 02:31:73
  TRACK 80 AUDIO
    TITLE "0:"
    INDEX 01 02:34:01
  TRACK 81 AUDIO
    TITLE "3:cjc143_2304"
    INDEX 01 02:35:12
  TRACK 82 AUDIO
    TITLE "0:"
    INDEX 01 02:37:40
